<svg width="150" height="150" viewBox="0 0 150 150" fill="none" xmlns="http://www.w3.org/2000/svg">
<g clip-path="url(#clip0_16_67)">
<path d="M35.0046 90C33.5346 90 32.2899 90.0076 31.0452 90C29.6058 89.9924 28.6818 89.3126 28.3572 87.8882C28.025 86.418 27.712 84.9402 27.3874 83.47C27.3416 83.2676 27.2805 83.069 27.2309 82.8666C26.891 81.4804 21.9542 79.4717 20.7362 80.2355C19.3235 81.1214 17.926 82.0188 16.5209 82.9162C15.238 83.7373 14.0697 83.596 12.9968 82.5191C11.1564 80.6746 9.31226 78.8378 7.47191 76.9972C6.39519 75.9241 6.26919 74.7518 7.10155 73.4725C7.27337 73.2128 7.43755 72.9455 7.60173 72.6782C8.499 71.2195 9.97662 69.818 10.1255 68.2828C10.2706 66.8241 9.07172 65.2126 8.373 63.708C8.18973 63.3185 7.70864 62.9252 7.28864 62.8106C5.63538 62.36 3.95539 62.0048 2.2754 61.6459C0.702325 61.3136 -0.0116698 60.3475 -0.000215373 58.7665C0.0150572 56.2653 -0.0116698 53.7678 0.00742094 51.2665C0.0226936 49.5023 0.618326 48.7691 2.38995 48.3338C3.8523 47.9748 5.33375 47.6808 6.80374 47.3371C8.60972 46.9132 10.6143 42.0481 9.62535 40.5015C8.78536 39.1879 7.93773 37.8742 7.0901 36.5644C6.25774 35.2813 6.40283 34.1128 7.46809 33.0397C9.30463 31.1914 11.145 29.3508 12.9739 27.4987C14.104 26.3531 15.3029 26.2844 16.624 27.1512C18.0177 28.0639 19.396 29.0033 20.8507 29.8129C21.2936 30.0611 21.9809 30.0382 22.5116 29.9236C23.1073 29.7938 23.6227 29.2783 24.2145 29.1828C26.6963 28.7818 27.5669 27.1703 27.7654 24.8867C27.857 23.8595 28.1358 22.8361 28.4298 21.8432C28.8307 20.5028 30.0792 19.7811 31.3163 20.0636C32.5915 20.3577 33.4621 21.4957 33.2101 22.8781C32.7252 25.5359 32.2021 28.1976 31.4805 30.7981C31.2857 31.4969 30.419 32.1843 29.6974 32.528C27.4981 33.5705 25.2531 34.5481 22.9507 35.3271C22.0802 35.6212 20.8927 35.5677 20.0489 35.2011C18.682 34.6092 17.5137 33.5743 16.1888 32.8602C15.7955 32.6464 15.0357 32.7113 14.65 32.9633C13.749 33.5591 12.9739 34.3495 12.1033 35.098C13.203 36.8203 14.0811 38.279 15.0471 39.6805C15.8795 40.8872 15.8795 41.9947 15.2304 43.3198C14.2759 45.2711 13.455 47.2989 12.7295 49.3457C12.2637 50.6594 11.5306 51.4537 10.1446 51.721C8.46081 52.0456 6.7961 52.4694 5.06266 52.8628V57.1169C6.86483 57.5331 8.625 57.9723 10.4004 58.3427C11.607 58.5947 12.2255 59.3241 12.6531 60.4544C13.4741 62.6349 14.3751 64.7925 15.3488 66.9119C15.8528 68.0117 15.8986 68.9893 15.2419 70.0051C14.421 71.2729 13.5504 72.514 12.8402 73.8391C12.6302 74.2286 12.6913 75.042 12.9701 75.3666C15.1197 77.8717 15.1464 77.8488 17.8878 76.0998C18.2391 75.8745 18.6171 75.6836 18.934 75.4162C20.6445 73.9651 22.2864 74.0491 24.1992 75.2177C25.6807 76.1265 27.4141 76.6802 29.0979 77.1843C30.6252 77.6426 31.5034 78.4636 31.7745 80.0484C32.0532 81.679 32.4617 83.2867 32.8206 84.9364H34.8863V70.1464C33.6072 69.9058 32.2594 69.776 30.9917 69.3941C25.2645 67.6757 21.5914 63.8722 20.3658 58.041C19.0944 51.9959 21.1333 46.9743 25.9098 43.083C26.3832 42.6973 26.9521 42.346 27.5325 42.2047C28.6436 41.9336 29.6058 42.3116 30.2052 43.3312C30.8008 44.3432 30.6939 45.3437 29.915 46.2144C29.537 46.6344 29.0445 46.9552 28.6054 47.3218C25.5241 49.8956 24.268 54.0886 25.4363 57.9111C26.597 61.7146 30.0181 64.5405 33.9699 64.9529C34.2639 64.9835 34.5655 64.9567 35.0008 64.9567C35.0008 64.2503 35.0008 63.6354 35.0008 63.0206C35.0008 46.5122 35.0008 30 35.0008 13.4916C35.0046 5.23549 40.2126 0.00381874 48.4369 0C66.1455 0 83.8503 0 101.559 0C109.783 0 114.999 5.23167 114.999 13.4801C114.999 28.3236 114.999 43.167 114.999 58.0104V60C116.324 60 117.507 59.9885 118.691 60C120.547 60.0229 121.314 60.6301 121.745 62.4516C122.116 64.0211 122.421 65.6059 122.784 67.1754C123.074 68.4394 128.08 70.5168 129.176 69.8294C130.588 68.9473 131.993 68.0537 133.383 67.1372C134.712 66.2627 135.915 66.3735 137.037 67.5C138.836 69.3101 140.638 71.1163 142.455 72.9111C143.581 74.0224 143.757 75.2177 142.887 76.558C142.035 77.8679 141.199 79.1853 140.359 80.5028C140.218 80.7205 140.065 80.9343 139.95 81.1673C139.527 82.0265 141.825 86.9832 142.757 87.2047C144.376 87.5866 146.006 87.9264 147.621 88.3274C149.381 88.7627 149.981 89.5036 149.996 91.2716C150.015 93.7729 149.992 96.2704 150.004 98.7716C150.011 100.353 149.29 101.311 147.72 101.643C146.094 101.991 144.46 102.331 142.867 102.797C142.375 102.942 141.886 103.419 141.596 103.87C141.241 104.427 141.222 105.21 140.836 105.733C139.424 107.662 140.038 109.212 141.294 110.992C144.376 115.36 144.311 115.249 140.523 118.98C139.374 120.115 138.263 121.287 137.106 122.41C135.823 123.655 134.88 123.739 133.337 122.803C133.07 122.643 132.814 122.463 132.551 122.295C129.728 120.48 126.779 120.257 123.704 121.627C123.315 121.802 122.937 122.307 122.826 122.73C122.402 124.338 122.116 125.98 121.734 127.599C121.325 129.314 120.18 130.204 118.79 129.952C117.301 129.684 116.522 128.409 116.873 126.606C117.339 124.208 117.778 121.791 118.473 119.458C118.71 118.663 119.577 117.854 120.363 117.464C122.498 116.41 124.766 115.631 126.931 114.642C128.034 114.138 129.011 114.104 130.023 114.761C131.291 115.582 132.532 116.452 133.86 117.159C134.246 117.365 135.006 117.258 135.388 116.995C136.274 116.38 137.033 115.582 137.866 114.841C136.743 113.088 135.819 111.591 134.834 110.132C134.078 109.01 134.151 107.967 134.712 106.764C135.659 104.748 136.514 102.686 137.282 100.597C137.736 99.3559 138.412 98.5616 139.748 98.3057C141.478 97.9735 143.188 97.542 144.945 97.141V92.8488C143.371 92.5051 141.779 92.1003 140.164 91.8139C138.549 91.5237 137.663 90.6645 137.175 89.0644C136.602 87.1894 135.854 85.3335 134.918 83.6113C134.086 82.0799 134.082 80.8159 135.101 79.4297C135.873 78.3872 136.59 77.2836 137.175 76.1303C137.373 75.737 137.297 74.9313 137.01 74.6029C134.861 72.1283 134.834 72.1512 132.093 73.9078C131.566 74.2439 131.016 74.5494 130.523 74.9274C129.145 75.9852 127.851 75.8669 126.339 75.0458C124.663 74.1331 122.86 73.3847 121.031 72.8424C119.367 72.3498 118.462 71.46 118.187 69.7607C117.931 68.1835 117.526 66.6293 117.187 65.0484H115.106V79.8422C116.427 80.0904 117.775 80.2202 119.042 80.6021C124.769 82.3282 128.435 86.1469 129.638 91.9781C130.886 98.0193 128.851 103.037 124.071 106.936C123.991 107.001 123.907 107.062 123.819 107.123C122.337 108.17 120.856 108.063 119.959 106.844C119.077 105.642 119.313 104.282 120.749 103.194C122.971 101.51 124.346 99.3483 124.857 96.6102C125.953 90.7294 121.047 84.8943 114.999 85.0967V86.9297C114.999 103.438 114.999 119.95 114.999 136.459C114.999 144.81 109.806 149.996 101.456 150C83.8006 150 66.1455 150 48.4903 150C40.247 150 35.0046 144.776 35.0008 136.562C35.0008 121.718 35.0008 106.875 35.0008 92.0316C35.0008 91.4167 35.0008 90.8019 35.0008 89.9962L35.0046 90ZM110.005 74.9962C110.005 54.5316 110.005 34.067 110.005 13.6023C110.005 7.93534 107.099 5.00255 101.479 5.00255C83.8274 5.00255 66.1722 5.00255 48.5209 5.00255C42.9769 5.00255 40.0064 7.95061 40.0064 13.4534C40.0064 54.4857 40.0064 95.5219 40.0064 136.554C40.0064 142.053 42.9846 145.001 48.5285 145.001C66.1302 145.001 83.7281 145.001 101.33 145.001C107.088 145.001 110.005 142.107 110.005 136.39C110.005 115.925 110.005 95.4608 110.005 74.9962Z" fill="black"/>
<path d="M125.003 22.6909C125.022 21.1062 126.129 19.9567 127.591 20.014C128.935 20.0637 130.012 21.2131 129.989 22.5649C129.962 24.0237 128.687 25.3106 127.328 25.2533C125.911 25.1922 124.987 24.1764 125.006 22.6948L125.003 22.6909Z" fill="black"/>
<path d="M125.003 32.654C125.037 31.0769 126.167 29.9351 127.626 30.0115C128.966 30.084 130.031 31.2487 129.985 32.5967C129.939 33.9906 128.744 35.2355 127.442 35.2508C125.976 35.266 124.968 34.1968 125.003 32.654Z" fill="black"/>
<path d="M125.003 42.6515C125.041 41.0744 126.175 39.9364 127.629 40.0166C128.97 40.0891 130.031 41.2615 129.985 42.6057C129.936 43.9995 128.741 45.2406 127.439 45.252C125.972 45.2635 124.968 44.1904 125.003 42.6515Z" fill="black"/>
<path d="M20.0071 107.203C20.0186 105.676 21.0571 104.542 22.466 104.515C23.8176 104.492 24.9707 105.611 24.9936 106.97C25.0204 108.456 23.81 109.728 22.382 109.712C20.9273 109.697 19.9957 108.712 20.0071 107.203Z" fill="black"/>
<path d="M20.0071 117.209C20.0186 115.681 21.0533 114.543 22.4584 114.516C23.81 114.49 24.9631 115.605 24.9898 116.964C25.0204 118.45 23.81 119.725 22.3858 119.71C20.9311 119.695 19.9957 118.713 20.0071 117.209Z" fill="black"/>
<path d="M20.0071 127.107C20.0568 125.594 21.1526 124.483 22.5615 124.518C23.9169 124.552 25.0204 125.709 24.9936 127.068C24.9631 128.565 23.7222 129.776 22.2866 129.707C20.8395 129.642 19.9575 128.634 20.0071 127.107Z" fill="black"/>
<path d="M56.0467 74.9924C58.7499 77.696 61.3768 80.2126 63.8434 82.8781C64.4619 83.5463 64.9621 84.7492 64.8361 85.6046C64.5306 87.6477 62.0985 88.0983 60.4643 86.4906C57.7916 83.8671 55.1609 81.1978 52.5149 78.5476C49.09 75.1222 49.0862 74.8816 52.4844 71.4868C55.1341 68.8366 57.7687 66.1787 60.4337 63.5438C61.7434 62.2492 63.2095 62.1729 64.2786 63.2727C65.3401 64.361 65.2293 65.793 63.9159 67.122C61.3577 69.7111 58.7728 72.2696 56.0505 74.9924H56.0467Z" fill="black"/>
<path d="M94.0106 75.0153C91.2768 72.2925 88.6614 69.7722 86.1605 67.1334C85.5763 66.5186 85.0341 65.4761 85.1296 64.7161C85.225 63.9715 86.0536 62.9404 86.7523 62.7533C87.5274 62.5433 88.7721 62.8717 89.3792 63.4331C92.1626 66.0145 94.7971 68.7564 97.4851 71.4409C100.91 74.8625 100.91 75.1337 97.5271 78.5132C94.8773 81.1635 92.239 83.8251 89.5739 86.4562C88.3445 87.6706 87.0616 87.8081 85.9543 86.9374C84.6943 85.9445 84.6676 84.3254 85.9772 83.0003C88.5735 80.3768 91.2119 77.7915 94.0068 75.0153H94.0106Z" fill="black"/>
<path d="M72.7015 87.4911C70.7275 87.4376 69.708 85.9292 70.1777 84.0313C71.6247 78.1887 73.0947 72.3498 74.5533 66.5071C74.7289 65.8007 74.8625 65.0827 75.084 64.3916C75.5307 62.9901 76.8136 62.2416 78.0965 62.5738C79.41 62.9137 80.2652 64.1853 79.9216 65.583C78.2951 72.2391 76.6227 78.8837 74.9427 85.5245C74.6258 86.777 73.74 87.4147 72.7015 87.4911Z" fill="black"/>
<path d="M74.9695 15C72.6251 15 70.2846 15.0153 67.9402 14.9962C66.1152 14.9809 64.9964 13.988 65.0155 12.4682C65.0346 10.9483 66.1419 10.0127 68.0051 10.0089C72.69 9.99365 77.3749 9.99365 82.0636 10.0089C83.8887 10.0166 85.0112 11.0171 84.9883 12.5331C84.9692 14.0377 83.8428 14.9847 81.9987 14.9962C79.6543 15.0153 77.3138 15 74.9695 15Z" fill="black"/>
</g>
<defs>
<clipPath id="clip0_16_67">
<rect width="150" height="150" fill="white"/>
</clipPath>
</defs>
</svg>
