<svg width="169" height="150" viewBox="0 0 169 150" fill="none" xmlns="http://www.w3.org/2000/svg">
<g clip-path="url(#clip0_16_47)">
<path d="M0 133.418C0 94.4661 0 55.5138 0 16.5616C0.073947 16.4128 0.186813 16.2758 0.221841 16.1193C2.6115 5.49165 9.43408 0.00365588 20.2654 -0.000258527C33.6303 -0.000258527 46.9991 -0.000258527 60.3641 -0.000258527C90.0674 -0.000258527 119.771 -0.0120017 149.474 0.00365588C160.691 0.0114847 168.977 8.11822 168.984 19.1725C169.012 56.4063 169.012 93.6362 168.949 130.87C168.949 133.043 168.572 135.309 167.879 137.364C165.225 145.236 158.165 149.992 149.439 149.992C106.149 150 62.8627 149.992 19.5726 149.992C18.9693 149.992 18.3622 149.988 17.759 149.957C9.88554 149.546 2.95399 144.042 0.766713 136.448C0.478709 135.446 0.256868 134.424 0.00389195 133.414L0 133.418ZM163.399 45.0937H5.59273C5.59273 45.6534 5.59273 46.0879 5.59273 46.5185C5.59273 74.5065 5.58105 102.498 5.60051 130.486C5.60829 138.781 11.2438 144.367 19.5687 144.367C62.851 144.379 106.133 144.375 149.416 144.351C150.828 144.351 152.292 144.214 153.65 143.835C159.819 142.112 163.392 137.121 163.396 130.326C163.407 102.502 163.399 74.6788 163.399 46.8552C163.399 46.3111 163.399 45.767 163.399 45.0898V45.0937ZM5.67057 39.2377H163.322C163.322 31.9765 163.396 24.8406 163.263 17.7124C163.236 16.1701 162.703 14.5261 162.01 13.1287C159.375 7.82072 154.872 5.61691 149.104 5.61691C106.032 5.62866 62.96 5.62474 19.8878 5.62474C19.557 5.62474 19.2262 5.62083 18.8993 5.62866C11.7342 5.86352 6.0909 10.7526 5.7484 17.7163C5.39813 24.8327 5.67057 31.9765 5.67057 39.2377Z" fill="black"/>
<path d="M92.0757 64.756C91.4218 67.9149 90.7096 71.3752 89.9857 74.8317C87.0473 88.8766 84.105 102.921 81.1626 116.966C81.0615 117.452 80.9719 117.945 80.8318 118.419C80.3765 119.988 79.0143 120.928 77.6404 120.65C76.0331 120.325 75.0756 118.908 75.422 117.154C76.0914 113.741 76.8348 110.343 77.5509 106.942C80.5244 92.7322 83.4978 78.5269 86.4752 64.3176C86.8916 62.3291 87.9502 61.327 89.4836 61.4053C91.0287 61.4835 92.1263 62.7675 92.0757 64.7521V64.756Z" fill="black"/>
<path d="M52.9344 90.8612C57.8732 95.0848 62.6448 99.1597 67.4007 103.246C67.9417 103.708 68.5138 104.182 68.9069 104.761C69.6736 105.889 69.6269 107.098 68.7123 108.112C67.8211 109.102 66.6768 109.396 65.4275 108.758C65.0422 108.558 64.6842 108.284 64.3533 107.998C58.6983 103.164 53.0394 98.3338 47.4 93.4838C45.3334 91.7067 45.3178 90.0235 47.4 88.2268C53.0317 83.3651 58.6828 78.5269 64.3456 73.7004C65.9296 72.35 67.4747 72.2873 68.6072 73.4303C69.8527 74.6869 69.6581 76.4836 68.0312 77.8888C63.6528 81.6741 59.2471 85.4241 54.857 89.1897C54.2732 89.6908 53.6933 90.1957 52.9344 90.8534V90.8612Z" fill="black"/>
<path d="M116.062 90.8533C111.068 86.571 106.258 82.453 101.455 78.3233C101 77.9319 100.525 77.5287 100.167 77.0511C99.2913 75.8807 99.3653 74.6399 100.292 73.5634C101.179 72.53 102.354 72.3304 103.572 72.9684C104.102 73.2463 104.577 73.6417 105.036 74.0331C110.438 78.6521 115.84 83.275 121.23 87.9097C123.803 90.1213 123.783 91.6205 121.207 93.8204C115.805 98.4394 110.407 103.066 105.005 107.689C104.713 107.94 104.433 108.21 104.117 108.429C102.755 109.384 101.261 109.259 100.257 108.128C99.2875 107.035 99.3342 105.38 100.494 104.241C101.595 103.164 102.81 102.205 103.981 101.199C107.947 97.7975 111.921 94.3998 116.062 90.8533Z" fill="black"/>
<path d="M11.7615 22.5431C11.777 17.6618 15.7429 13.6769 20.5689 13.6926C25.3677 13.7122 29.3803 17.7714 29.3647 22.59C29.3453 27.4087 25.2938 31.4718 20.5222 31.4522C15.6962 31.4287 11.7498 27.4165 11.7654 22.5431H11.7615ZM23.7603 22.6761C23.8226 20.9303 22.3047 19.3372 20.5689 19.3254C18.872 19.3137 17.4126 20.7385 17.3542 22.4648C17.2919 24.2497 18.7592 25.8038 20.5222 25.8194C22.1763 25.8351 23.702 24.3593 23.7603 22.6761Z" fill="black"/>
<path d="M83.5834 22.7075C83.599 27.6122 79.7071 31.5501 74.8304 31.5658C69.9577 31.5814 66.0191 27.6592 66.0035 22.7701C65.9879 17.8888 69.9188 13.904 74.7643 13.8883C79.6175 13.8727 83.5679 17.8223 83.5834 22.7036V22.7075ZM74.811 25.9369C76.5546 25.929 77.9479 24.5551 77.979 22.8092C78.0141 20.9891 76.5857 19.5172 74.7837 19.5251C72.9973 19.529 71.5573 21.0282 71.6079 22.8367C71.6546 24.5825 73.0635 25.9486 74.811 25.9408V25.9369Z" fill="black"/>
<path d="M38.8961 22.6253C38.9117 17.7127 42.8192 13.8061 47.6997 13.8218C52.5646 13.8374 56.4799 17.7949 56.4644 22.684C56.4488 27.5574 52.4829 31.5266 47.6413 31.511C42.7842 31.4953 38.8805 27.53 38.8922 22.6292L38.8961 22.6253ZM44.4966 22.5822C44.4616 24.4141 45.8822 25.882 47.6802 25.8781C49.4044 25.8742 50.8288 24.465 50.8639 22.7309C50.8989 20.9186 49.4589 19.4468 47.6608 19.4507C45.9133 19.4546 44.5278 20.8246 44.4966 22.5822Z" fill="black"/>
</g>
<defs>
<clipPath id="clip0_16_47">
<rect width="169" height="150" fill="white"/>
</clipPath>
</defs>
</svg>
